<?xml version="1.0"?><svg width="1600" height="1200" xmlns="http://www.w3.org/2000/svg">
 <title>yellow pop can</title>
 <g>
  <title>Layer 1</title>
  <g id="svg_1">
   <path stroke-width="0.036" stroke-miterlimit="10" stroke="#000000" fill-rule="evenodd" d="m265.006775,136.720856c-11.930222,17.595703 -20.589264,38.930481 -25.977112,64.884125c-5.965118,25.953659 -6.157547,17.815643 -6.542389,90.177917c-0.577271,72.802185 3.463608,241.720825 4.810577,339.596863c0.384842,96.116455 0.192413,165.84552 1.731812,237.108093c1.346954,71.256409 -6.927246,142.305115 8.466614,188.493835c15.97113,45.088989 44.642181,62.02478 83.704071,82.259888c38.099762,20.015015 90.054047,30.79248 143.162811,36.51709c52.531494,4.838867 118.147827,6.592285 170.102051,-6.598389c51.18457,-14.302612 106.794861,-54.106689 135.658325,-75.447632c28.286194,-21.768555 25.399841,-23.308105 32.140015,-53.006958c5.195435,-30.79248 4.040894,-46.188782 4.040894,-127.568787c-0.775024,-83.139648 -1.731812,-260.63623 -3.661377,-361.15155c-1.918884,-100.515442 -4.233337,-177.276642 -6.152222,-233.582855c-2.314392,-55.866333 -0.577209,-68.183304 -7.312073,-98.975769c-7.119629,-31.452301 -19.24762,-59.605408 -35.598267,-86.878723c0.769714,-6.158501 1.731812,-12.316986 2.886353,-21.11483c0.57196,-8.797852 1.346924,-18.475479 2.309082,-29.912682c-18.665039,-20.45499 -47.33075,-35.851219 -86.777527,-46.18869c-40.611938,-10.343578 -92.566223,-17.601803 -149.908264,-15.842234c-57.919403,1.319677 -146.241638,9.457685 -191.46106,24.414022c-45.027008,14.296501 -70.42688,34.751492 -76.969269,62.244762c0.384857,10.117523 0.769684,20.235046 1.346954,30.572502z" clip-rule="evenodd"/>
   <path stroke-width="0.036" stroke-miterlimit="10" stroke="#000000" fill-rule="evenodd" fill="#C0C0C0" d="m500.725128,81.074493c-16.355957,-13.19677 -32.327057,-22.434509 -47.143646,-30.35257c-15.586304,-8.138012 -31.36499,-12.976822 -42.91037,-15.396229c-11.737793,-2.199467 -20.781708,-0.439892 -27.131683,1.979511c-6.157532,1.759571 -8.851471,3.739086 -10.968109,7.698112c-3.463623,3.07925 -7.312073,7.03828 -6.349976,13.636665c0.962128,6.598389 1.924255,16.056068 11.737823,24.85392c8.851471,7.91806 23.283203,18.035583 43.295227,24.414017c20.204407,5.938545 45.219421,9.017792 76.584381,10.117523c-6.542358,-7.91806 -9.428711,-14.516441 -8.659027,-20.674934c0.192413,-6.158493 4.040894,-11.877098 11.54538,-16.276016z" clip-rule="evenodd"/>
   <path stroke-width="0.036" stroke-miterlimit="10" stroke="#000000" fill-rule="evenodd" d="m482.829773,77.775291c-36.175537,-19.355255 -60.805695,-30.57251 -76.776794,-31.232346c-15.97113,-1.319675 -19.24234,16.056068 -17.125671,24.194077c2.116638,7.91806 11.737793,16.495964 28.093781,23.314293c15.778687,5.938545 37.522522,11.87709 66.001129,15.396225c-8.851471,-9.017792 -13.277222,-15.396225 -13.277222,-20.894875c-0.384827,-5.058762 4.233337,-9.23774 13.084778,-10.777374z" clip-rule="evenodd"/>
   <path stroke-width="0.036" stroke-miterlimit="10" stroke="#000000" fill-rule="evenodd" fill="#C0C0C0" d="m517.658386,79.754814c-4.810547,1.979515 -11.930237,6.378433 -13.277191,13.19677c-1.731812,7.258217 -5.003021,21.774666 2.116638,29.252838c6.734833,6.158493 26.944611,14.296494 36.752838,10.117523c9.038513,-5.058754 18.280151,-27.053383 17.312683,-36.291115c-1.918823,-9.23774 -20.391418,-16.276016 -27.318726,-18.695419c-7.119629,-3.299194 -11.352966,-0.219948 -15.586243,2.419403z" clip-rule="evenodd"/>
   <path stroke-width="0.036" stroke-miterlimit="10" stroke="#000000" fill-rule="evenodd" fill="#C0C0C0" d="m524.008362,94.051315c-4.040894,1.539619 -5.580261,12.536934 -3.078796,16.935852c2.309082,3.95903 11.352966,8.577904 15.97113,7.038277c4.233276,-2.199455 9.043884,-14.076553 7.69696,-17.815643c-2.69397,-4.398918 -16.740845,-8.138 -20.589294,-6.158485z" clip-rule="evenodd"/>
   <path stroke-width="0.036" stroke-miterlimit="10" stroke="#000000" fill-rule="evenodd" fill="#C0C0C0" d="m642.348572,140.459961c11.732483,-0.659851 19.81958,-4.398926 25.015015,-10.337479c5.195435,-6.818329 8.659058,-20.674942 4.42572,-27.273323c-4.618103,-6.598381 -15.201416,-11.657143 -32.519531,-12.756874c-18.280151,-1.319679 -42.910278,-1.099731 -75.42981,3.079247c0.192383,-5.938545 -1.924255,-9.897575 -7.11969,-14.296501c-5.580261,-4.618866 -15.778687,-10.337471 -23.090759,-10.337471c-7.691589,-0.659836 -14.431763,2.199463 -20.96875,8.577904l-14.81665,-8.797844c6.542419,-5.278713 20.974121,-8.797848 43.295227,-9.677635c22.705933,-1.759567 60.613281,-2.199463 89.866943,2.859299c28.858154,4.398918 63.499634,18.035583 80.240417,26.613487c15.201477,7.698112 25.20752,15.836121 13.662109,24.414024c-12.133362,8.797852 -38.687744,17.815643 -82.560242,27.933167z" clip-rule="evenodd"/>
   <path stroke-width="0.036" stroke-miterlimit="10" stroke="#000000" fill-rule="evenodd" fill="#C0C0C0" d="m492.643372,122.424362c-1.924225,0 0.192444,1.759575 5.580261,4.398933c5.580292,2.859291 16.740845,9.67762 27.516479,11.217262c10.583313,0.43988 21.359009,-1.319702 34.443787,-6.158508c0.379456,1.979523 3.84845,4.618866 10.385498,7.038284c6.349976,2.419403 15.206726,4.618866 27.324097,7.478165c-12.507507,1.319687 -28.478638,2.199463 -49.452759,3.519135c-21.743774,0.879791 -47.33609,3.299194 -75.237427,3.079254c-28.093811,-0.439896 -60.805725,-2.639359 -90.054077,-6.598389c-29.440704,-5.278702 -57.726929,-11.87709 -85.628296,-22.214561c-0.769684,-7.258224 3.84848,-14.516449 15.39386,-22.654449c11.352966,-8.357956 28.286194,-16.056076 51.569427,-24.853912c10.583282,12.316978 21.743805,21.774666 35.79071,29.252831c13.277191,7.038277 29.633148,10.997307 45.411835,14.296501c15.591614,2.199455 30.985474,3.739082 46.956604,2.199455z" clip-rule="evenodd"/>
   <path stroke-width="0.036" stroke-miterlimit="10" stroke="#000000" fill-rule="evenodd" fill="#C0C0C0" d="m445.499695,37.965046c24.822601,-4.61887 47.336121,-6.598383 69.849609,-8.357952c21.936218,-2.199463 38.094421,-1.759569 61.960266,-0.439894c23.085449,1.539623 56.572388,5.938543 78.118408,9.677633c21.166626,3.299187 34.05896,4.838814 49.073242,10.557411c14.811279,5.278709 29.633179,13.636662 38.47937,20.015099c8.087097,5.498657 11.165833,9.677635 10.781006,15.836121c-0.962158,5.498657 -5.387878,11.877098 -14.81665,19.135315c-1.346924,-7.918053 -9.428711,-15.616173 -22.128662,-23.094337c-12.892273,-8.357956 -31.749756,-16.715912 -56.572327,-22.434513c-25.977173,-6.378433 -66.770813,-9.457684 -96.403992,-10.117519c-30.210449,-0.439892 -56.380005,2.859299 -81.39502,9.017792c-12.315063,-6.598385 -24.630188,-13.196766 -36.945251,-19.795155z" clip-rule="evenodd"/>
   <path stroke-width="0.036" stroke-miterlimit="10" stroke="#000000" fill-rule="evenodd" fill="#C0C0C0" d="m360.641083,42.803864c-8.466614,1.319675 -18.857452,5.278706 -31.172546,10.997303c-13.277191,6.158497 -34.828583,14.956341 -43.872467,23.754192c-9.428741,8.138 -10.775696,15.396225 -10.006012,22.654442c0.769684,6.158501 6.157532,11.43721 15.39386,15.836128c-2.886353,-5.278702 1.539368,-11.217255 13.277191,-18.695419c11.737793,-7.69812 30.210419,-15.39624 56.187561,-24.853912c-2.501495,-3.959038 -3.656036,-8.797852 -3.463623,-13.636669c-0.384827,-5.058762 1.539368,-10.117519 3.656036,-16.056065z" clip-rule="evenodd"/>
   <path stroke-width="0.036" stroke-miterlimit="10" stroke="#000000" fill-rule="evenodd" fill="#C0C0C0" d="m270.009796,102.629219c-1.731812,0.659836 -1.731812,3.739082 -2.116669,9.237732c0.192413,5.278717 0,12.976822 1.539398,23.094353c11.737793,9.237732 25.977112,15.836121 43.48761,22.434509c17.318085,5.278702 34.636169,9.457687 60.036041,13.416702c24.630157,4.178986 60.420868,8.357956 88.707092,10.777359c27.324066,1.539627 44.642151,1.759567 77.931335,-0.21994c33.487,-1.759567 82.357178,-3.95903 119.879639,-10.777359c36.565735,-8.138016 68.502686,-18.915375 98.135803,-34.75148l6.157532,-45.308922c-7.312073,13.416718 -19.81958,23.754189 -38.292236,33.431816c-19.049866,8.577896 -46.373962,15.61618 -72.351074,21.114838c-26.746826,5.278702 -57.534485,8.138 -84.088928,10.997299c-26.169495,2.419418 -46.561035,3.299194 -73.120789,3.51915c-27.324066,-0.659851 -63.30719,-2.419403 -88.707062,-4.398941c-25.784698,-2.419403 -45.989136,-5.718582 -65.039032,-9.897568c-19.81958,-5.058762 -38.292206,-11.87709 -50.222443,-18.695427c-12.12265,-7.478165 -19.434723,-15.176277 -21.936218,-23.974121z" clip-rule="evenodd"/>
   <path stroke-width="10.036" stroke-miterlimit="10" stroke="#000000" fill-rule="evenodd" fill="#0000ff" d="m267.893127,144.439468c-6.927216,15.61618 -12.12265,30.79245 -16.355972,45.528854c-4.233307,14.516434 -6.927231,21.774673 -8.851456,42.22966c-2.886353,19.795151 -5.77269,44.869003 -5.77269,78.740738c0,33.651733 0.769684,74.341797 4.42572,122.94986c53.301224,37.83075 95.441879,57.625885 127.191696,58.505707c31.557404,-0.219971 29.440765,-61.58493 61.960266,-53.44693c31.94223,8.577911 103.716095,104.914337 130.072662,104.034515c25.399902,-1.979492 0.967468,-113.272247 24.630188,-113.272247c23.860535,-0.659851 92.747986,112.832367 116.800842,112.172516c22.898376,-1.319702 6.157593,-109.973053 23.283203,-117.231293c17.510559,-7.038269 43.102844,16.276031 79.663208,73.242096c-0.577271,-32.332062 -1.346985,-65.324005 -2.314453,-100.735352c-1.15448,-36.291107 -2.501465,-80.720245 -4.040833,-110.412964c-1.918884,-29.692719 -1.154541,-41.129929 -7.312134,-64.884125c-6.734741,-23.974121 -17.312683,-49.707825 -31.744446,-77.201096c-19.627197,12.976822 -43.872437,23.534241 -75.044983,31.672241c-31.365051,7.918076 -69.079956,12.976837 -110.258484,16.056076c-42.33313,2.419403 -93.710083,4.398926 -136.42804,0.879791c-43.102783,-3.95903 -87.167694,-15.61618 -115.838745,-23.094345c-28.858124,-8.357956 -46.176208,-16.935852 -54.065552,-25.733704z" clip-rule="evenodd"/>
   <path stroke-width="10.036" stroke-miterlimit="10" stroke="#000000" fill-rule="evenodd" fill="#ff0000" d="m240.761459,450.144104l3.848465,230.509705c80.240448,35.411316 133.926514,49.04187 163.367249,38.490601c29.055908,-11.657166 -21.936218,-98.096008 9.621185,-99.855591c31.172516,-0.885864 142.00827,93.697083 175.874786,93.697083c33.096741,-1.539612 -3.656067,-98.755859 22.513428,-97.436157c26.169556,2.199463 110.643372,107.11377 131.617493,107.773621c20.012024,-0.879822 -23.475647,-101.175232 -12.507507,-108.433472c10.390869,-6.378418 35.020996,14.95636 74.660156,67.529602l-4.42572,-173.757477c-32.327087,-50.367676 -56.759521,-71.042572 -73.313232,-62.904572c-16.740784,8.577881 -3.265808,111.512695 -26.361938,111.952576c-24.245361,-0.659851 -92.363098,-111.732666 -113.722107,-112.612427c-21.166504,-0.879761 0,95.236694 -12.892334,108.433472c-14.23938,12.756836 -42.905029,-13.856628 -67.540558,-30.57251c-25.399841,-17.815643 -60.036011,-69.283081 -80.048004,-72.142395c-20.011993,-2.419373 -21.166565,50.147736 -39.06189,57.625916c-18.66507,6.378479 -44.064911,-7.47818 -69.464783,-16.935852c-25.399872,-9.689819 -52.531525,-23.766388 -82.164688,-41.362122z" clip-rule="evenodd"/>
   <path stroke-width="10.036" stroke-miterlimit="10" stroke="#000000" fill-rule="evenodd" fill="#0000ff" d="m807.447632,698.689392c-34.636169,-52.793213 -55.225464,-76.321289 -60.998108,-69.7229c-6.542419,5.938538 25.207397,87.75238 24.630127,107.107666c-0.775024,18.921448 -3.463562,23.980225 -28.09906,6.598389c-25.586975,-18.249451 -98.905518,-105.134277 -119.687256,-113.926025c-20.396851,-8.577881 0.192383,41.349915 -2.116638,59.825317c-2.506897,16.92981 2.693909,42.449646 -14.046936,43.549377c-18.093079,0 -59.271606,-22.87439 -88.712402,-38.930481c-30.210419,-16.495972 -68.695038,-52.127258 -85.051025,-56.746094c-15.778687,-4.398926 -9.621155,13.636658 -9.043854,29.472778c0.384827,15.61615 14.624146,50.147705 9.428741,62.904602c-6.157562,12.317017 -13.469666,15.836121 -44.834595,10.557434c-32.134705,-5.938599 -79.278381,-20.455017 -144.317383,-44.423035c0.384842,69.28302 1.924225,131.521667 2.501495,188.493835c0.384842,56.966064 1.92424,106.020203 2.501495,150.663025c27.901367,32.112183 63.499634,56.746216 108.911499,74.78186c45.604279,17.815552 111.990295,28.592896 161.25061,32.332031c48.683044,2.859253 81.592712,1.539551 129.115906,-14.956421c47.528503,-17.37561 96.788879,-45.962524 152.206787,-87.538574c3.661316,-69.282959 5.200745,-130.427979 6.740112,-187.613953c0.582581,-57.198242 1.159912,-107.126038 -0.379517,-152.428833z" clip-rule="evenodd"/>
  </g>
 </g>
</svg>